<?xml version="1.0" encoding="UTF-8"?>
<!DOCTYPE svg PUBLIC "-//W3C//DTD SVG 1.1//EN" "http://www.w3.org/Graphics/SVG/1.1/DTD/svg11.dtd">
<svg xmlns="http://www.w3.org/2000/svg" version="1.1" width="32px" height="32px" style="shape-rendering:geometricPrecision; text-rendering:geometricPrecision; image-rendering:optimizeQuality; fill-rule:evenodd; clip-rule:evenodd" xmlns:xlink="http://www.w3.org/1999/xlink">
<g><path style="opacity:0.959" fill="#000000" d="M 10.5,0.5 C 13.8333,0.5 17.1667,0.5 20.5,0.5C 20.5,1.5 20.5,2.5 20.5,3.5C 23.1667,3.5 25.8333,3.5 28.5,3.5C 26.9937,12.0659 26.1604,20.7325 26,29.5C 19,30.8333 12,30.8333 5,29.5C 4.83964,20.7325 4.00631,12.0659 2.5,3.5C 5.16667,3.5 7.83333,3.5 10.5,3.5C 10.5,2.5 10.5,1.5 10.5,0.5 Z M 6.5,8.5 C 12.5,8.5 18.5,8.5 24.5,8.5C 24.6662,14.5092 24.4995,20.5092 24,26.5C 23.5,27 23,27.5 22.5,28C 17.8333,28.6667 13.1667,28.6667 8.5,28C 8,27.5 7.5,27 7,26.5C 6.50051,20.5092 6.33385,14.5092 6.5,8.5 Z"/></g>
<g><path style="opacity:0.971" fill="#000000" d="M 9.5,10.5 C 10.8117,12.7432 11.4783,15.4098 11.5,18.5C 11.1667,21.1667 10.8333,23.8333 10.5,26.5C 9.50515,21.2079 9.17182,15.8746 9.5,10.5 Z"/></g>
<g><path style="opacity:0.971" fill="#000000" d="M 14.5,10.5 C 15.8117,12.7432 16.4783,15.4098 16.5,18.5C 16.1667,21.1667 15.8333,23.8333 15.5,26.5C 14.5052,21.2079 14.1718,15.8746 14.5,10.5 Z"/></g>
<g><path style="opacity:0.971" fill="#000000" d="M 19.5,10.5 C 20.8117,12.7432 21.4783,15.4098 21.5,18.5C 21.1667,21.1667 20.8333,23.8333 20.5,26.5C 19.5052,21.2079 19.1718,15.8746 19.5,10.5 Z"/></g>
</svg>
